<svg width="4097" height="2729" viewBox="0 0 4097 2729" fill="none" xmlns="http://www.w3.org/2000/svg">
<path d="M53.5 1986.5L18.5 2056L1 2079.65V0H4097L4096.5 1553.5C4088.33 1545.33 4069 1525.5 4057 1511.5C4045 1497.5 4030.67 1475.33 4025 1466C4023.17 1450.19 4019.85 1445.09 4007.5 1446.5C4015.56 1442.91 4007.85 1433.44 4000.5 1432.5C3996.38 1431.97 4000.36 1419.3 3992.5 1415.5L3972.5 1383C3971.09 1360.87 3966.73 1355.15 3956 1350.5C3957.07 1345.36 3942.65 1335.5 3937 1336C3936.5 1336.04 3935 1334 3933 1323C3931.4 1314.2 3917.67 1310.67 3911 1310L3879 1305L3827 1296.5C3820.17 1295.5 3803.7 1290.9 3792.5 1280.5C3792.5 1280.1 3785.83 1283.33 3782.5 1285C3774.49 1282.07 3772.5 1279 3762 1277.5C3751.5 1276 3752.5 1279 3752.5 1279L3742 1276C3737.64 1262.47 3736.91 1254.92 3737 1241.5C3743.23 1229.97 3745.65 1222.57 3745.5 1205.5L3756 1207.5C3763.02 1201.48 3766.62 1197.58 3772 1189C3773.32 1187.56 3776.66 1178.55 3779 1149.5C3779.4 1147.1 3774.5 1139.83 3772 1136.5C3769.5 1133.17 3761.5 1135 3761.5 1135C3767.26 1116.82 3779.79 1075.04 3780.5 1072.5C3780.74 1071.64 3775 1052.83 3772 1043.5C3770.08 1029.59 3766.86 1022.11 3756.5 1009.5C3736.95 996.539 3721.32 990.808 3680 985C3680 985 3651.07 969.242 3635.5 977.5C3628.91 980.996 3621.5 990.5 3621.5 990.5L3589 1001C3589 1001 3569.02 1006.46 3559 1014.5C3546.33 1024.67 3536.5 1049.5 3536.5 1049.5C3536.5 1049.5 3529.52 1071.84 3530 1086.5C3530.41 1098.86 3532.48 1105.8 3536.5 1117.5C3540.99 1130.55 3552.5 1149 3552.5 1149L3541 1150.5C3535.91 1153.45 3532.5 1167 3532.5 1167C3530.12 1169.94 3541.26 1198.64 3552.5 1202C3554.96 1213.77 3558.76 1218.14 3573 1219C3573 1219 3575.72 1234.42 3580.5 1243C3584.69 1250.51 3594.5 1260 3594.5 1260C3599.8 1276.51 3601.22 1283.73 3599.5 1291C3592.33 1292.6 3588.66 1294.53 3583.5 1302L3565.5 1304C3560.46 1309.16 3559.04 1311.71 3557.5 1316L3540 1325C3519.05 1295.42 3507.15 1276.19 3485.5 1234.5C3480.86 1214.52 3476.22 1206.36 3461.5 1201.5C3429.94 1178.53 3416.15 1161.31 3398 1123.5L3362 1073.5C3362 1073.5 3356.38 1063.91 3351 1059.5C3340.41 1050.83 3317 1051 3317 1051C3314.15 1048.31 3298.2 1047.58 3277.5 1051C3273.49 1054.77 3274.85 1057.71 3277.5 1063V1070C3280.63 1073.92 3282.64 1075.45 3286.5 1077.5C3294.53 1074.72 3296.94 1073.04 3300.5 1070L3317 1073.5C3311.75 1075.04 3309.5 1076.45 3307.5 1080.5C3296.38 1080.39 3285.86 1082.26 3286.5 1091.5C3287 1098.68 3294.19 1103.98 3300.5 1103.5L3312.5 1098C3310.06 1101.82 3310.72 1104.1 3317 1108.5C3324.2 1115.7 3334 1114.5 3338 1113L3344.5 1138.5C3344.41 1152.3 3342.34 1158.5 3334 1166C3315.72 1161.32 3306.02 1158.66 3294.5 1153.5C3275.45 1152.32 3266.65 1148.08 3252 1138.5C3238.64 1139.64 3231.93 1138.45 3222 1131.5V1108.5L3235 1077.5L3240 1057H3245L3255 1042.5C3262.3 1026.25 3277.5 1006 3277.5 1006C3277.33 999.51 3276.81 995.584 3273.5 987L3272.86 986.204C3267.34 979.287 3265.12 976.5 3255 976.5C3246.6 976.5 3265.5 919.5 3265.5 919.5C3265.5 919.5 3260.05 887.508 3250.5 869.5C3237.55 845.096 3226.68 830.409 3202 818C3185.67 809.789 3169 800.167 3156.5 807C3144 813.833 3118.9 827.5 3118.5 827.5C3118.1 827.5 3108.74 821.223 3102.5 823C3095.1 825.107 3091 839 3091 839C3091 839 3074.46 847.385 3065.5 855C3056.75 862.437 3046 877 3046 877C3046 877 3039.12 892.753 3037.5 903.5C3035.13 919.198 3036.9 931.308 3041 944L3051.5 976.5H3041H3032.5C3031.5 976.082 3023.53 996.198 3026.5 1009.5C3029.18 1021.52 3041 1037.5 3041 1037.5C3041 1037.5 3042.19 1046.87 3046 1051C3050.4 1055.77 3061.5 1057 3061.5 1057L3072.5 1091.5C3077.99 1109.3 3078.49 1121.95 3076.5 1147.5L3064.5 1153.5L2979.5 1194C2954.08 1198.49 2939.94 1202.92 2915 1215.5C2915 1215.5 2888.36 1240.77 2889 1254.5C2889.64 1268.23 2891.09 1278.48 2899.5 1310.5C2905.42 1316.4 2907.25 1322.9 2910.5 1334.5L2937 1416.5H2904.5L2877 1366C2861.93 1337.25 2856.44 1322.97 2851.5 1300.5L2842 1276C2842 1276 2849.76 1269.04 2851.5 1263C2852.91 1258.12 2851.5 1250 2851.5 1250L2834 1226.5C2831.17 1224.17 2825.6 1219.6 2826 1220C2826.4 1220.4 2819.5 1222.83 2816 1224C2802.22 1201.08 2787.5 1144 2787.5 1144C2787.5 1144 2775.97 1133.91 2769 1127C2756.62 1114.73 2739.5 1093.5 2739.5 1093.5C2739.5 1093.5 2729.6 1085 2728 1059C2726 1033 2709.17 998.833 2701 985L2682.5 960L2660 944C2660 944 2640 935.5 2608 932C2608 932 2571.12 928.302 2546.5 949.5C2521.88 970.698 2515.89 985.318 2505.5 1011.5C2499.8 1034.01 2500.16 1048.83 2503 1072.5C2506.26 1099.73 2524 1139.5 2524 1139.5C2527.83 1155.09 2530.14 1164.12 2535.5 1182.5C2541.11 1190.3 2542.77 1196.44 2543.5 1210C2538.17 1218 2527.4 1234 2527 1234C2526.6 1234 2489 1255 2489 1255C2479.44 1256.94 2475.52 1259.2 2469.5 1264C2469.5 1264 2441.78 1292.4 2433.5 1315.5C2428.02 1330.79 2426.5 1356.5 2426.5 1356.5L2418.5 1346L2402 1313C2402 1313 2388.14 1287.99 2376.5 1274C2365.55 1260.83 2359 1253.37 2345 1243.5C2339.2 1239.41 2336.26 1236.17 2329.5 1234C2320.76 1231.19 2306 1234 2306 1234C2305 1233 2303.6 1227.3 2306 1212.5C2308.4 1197.7 2306 1162.5 2306 1162.5C2306 1162.5 2294.7 1126.9 2289.5 1118.5C2284.3 1110.1 2262 1091.5 2262 1091.5L2227 1077.5C2227 1077.5 2211.67 1076.33 2204 1075.5C2204 1075.5 2180.73 1073.84 2167 1078.5C2150.87 1083.98 2143.27 1091.82 2131.69 1103.77L2130.5 1105C2118.47 1117.4 2105.5 1141.5 2105.5 1141.5C2105.5 1141.5 2101.05 1137.1 2098 1134.5C2086.09 1124.32 2078.35 1119 2063.5 1114C2052.24 1110.21 2056.42 1107.02 2033.5 1109C2010.58 1110.98 2000.3 1114.14 1983.5 1121C1958.89 1133.15 1948.04 1145.59 1932.5 1175C1921.61 1203.56 1917.54 1227.41 1912.5 1278.5L1894 1329.5L1881.5 1313L1855 1296.5C1853.33 1290.67 1850.1 1278.9 1850.5 1278.5C1850.9 1278.1 1846.67 1275 1844.5 1273.5L1825 1270.5L1818 1267L1829 1211.5L1835 1134L1831.5 1068.5L1818.5 1008.5L1798.5 983L1752.5 957C1752.5 957 1720.55 954.213 1701 959C1677.93 964.649 1663.74 970.143 1647 987C1630.45 1003.67 1627.01 1018.24 1619.5 1040.5C1612.08 1062.49 1609 1099 1609 1099C1596.55 1132.04 1593.46 1152.33 1589 1189C1585.15 1213.21 1583.6 1227.31 1581.5 1253L1565.5 1261C1561.4 1259.75 1548.42 1254.37 1546.5 1253C1546.17 1252.77 1539.33 1254 1535.5 1254.5C1517.89 1263.52 1511.93 1269.98 1505.5 1283L1486.5 1295C1486.5 1295 1466 1253.5 1463 1253C1460 1252.5 1443.5 1223 1442 1225C1440.5 1227 1433 1230 1433 1230C1430.91 1226.13 1420.57 1226.57 1420 1225C1419.43 1223.43 1405.5 1214 1405.5 1214C1405.5 1214 1402.5 1223 1398.5 1223C1394.5 1223 1384.05 1173.79 1366 1149.5C1354.01 1133.37 1341.29 1129.13 1322.5 1122C1302.03 1114.23 1288.75 1111.42 1267 1114C1250.26 1115.98 1226 1127.5 1226 1127.5L1200.5 1060C1200.5 1060 1173.5 1023.5 1171 1022.5C1168.5 1021.5 1128.59 997.009 1100.5 1002.5C1081.98 1006.12 1058 1025.5 1058 1025.5C1038.22 1044.35 1029.24 1055.39 1019.5 1076.5L1008 1110.5C995.551 1109.31 978.5 1110.5 972 1110.5C965.5 1110.5 942.648 1135.76 926 1153.5L914.5 1176C901.748 1191.34 897.192 1199.11 890.5 1212.5L882.5 1210L871 1235.5L861.5 1257.5L852.5 1285L839.5 1305C832.604 1316.69 830.718 1324.3 829.5 1339C823.607 1346.26 821.769 1351.35 820 1361.5C812.169 1374.88 810.318 1380.77 809 1390C804.187 1401.56 802.536 1408.23 801.5 1420.5C801.5 1420.5 778 1372.5 773 1375.5C768 1378.5 760.5 1361.5 760.5 1361.5V1349C760.5 1349 754 1338.5 748.5 1339C743 1339.5 742.5 1345.5 742.5 1345.5L714 1328L709 1317V1284.5C709 1285.3 716.667 1263.17 720.5 1252C721.5 1243.5 723.5 1226.1 723.5 1224.5C723.5 1222.9 721.5 1197.83 720.5 1185.5C706.703 1112.72 684.798 1081.51 667.5 1076C650.202 1070.49 591.48 1065.44 572.5 1068.5C553.52 1071.56 487.147 1107.92 482 1127.5C476.853 1147.09 475.229 1189.04 467 1207.5C458.771 1225.96 433.64 1280.82 436 1284.5C438.36 1288.18 391.5 1324 391.5 1324L387.5 1321.5L358.5 1344.5C332.806 1356.68 323.776 1365.84 313 1384.5C294.6 1394.46 286.23 1399.58 284.5 1405.5L271.5 1414.5C254.72 1416.94 247.398 1424.65 238.5 1451C217.97 1477.5 210.136 1490.85 223.5 1503.5C225.028 1532.22 229.62 1539.28 242.5 1540.5C250.883 1554.43 256.257 1562.47 274 1579.5L252 1592.5C234.255 1594.8 224.292 1600.15 206.5 1615C190.663 1614.05 183.744 1618.5 173 1630.5C158.223 1632.36 150.718 1635.68 139.5 1648L103.5 1653.5L82 1679.5L74.5 1703.5C74.5 1703.5 71 1740 74.5 1739.5C78 1739 93.5 1766.5 93.5 1766.5L115.5 1784L151 1806.5L186 1822C194.58 1829.62 195.626 1833.74 195.5 1841L176.5 1845C176.5 1845 132.5 1853.5 115.5 1870.5C98.5 1887.5 89.5 1921.5 89.5 1921.5L69.5 1938.5L53.5 1986.5Z" fill="white"/>
</svg>
